<svg xmlns="http://www.w3.org/2000/svg" xmlns:xlink="http://www.w3.org/1999/xlink" viewBox="0 0 162 82"><defs><style>.cls-1{isolation:isolate;}.cls-2{fill:#011c19;}.cls-10,.cls-11,.cls-12,.cls-13,.cls-14,.cls-15,.cls-16,.cls-17,.cls-18,.cls-19,.cls-2,.cls-20,.cls-23,.cls-3,.cls-4,.cls-6,.cls-7,.cls-8,.cls-9{stroke:#000;}.cls-10,.cls-11,.cls-12,.cls-13,.cls-14,.cls-15,.cls-16,.cls-17,.cls-18,.cls-2,.cls-20,.cls-23,.cls-3,.cls-4,.cls-6,.cls-7,.cls-8,.cls-9{stroke-miterlimit:10;}.cls-10,.cls-11,.cls-12,.cls-13,.cls-14,.cls-15,.cls-16,.cls-17,.cls-18,.cls-19,.cls-2,.cls-23,.cls-3,.cls-4,.cls-6,.cls-7,.cls-8,.cls-9{stroke-width:0.25px;}.cls-3{fill:#eaddcd;}.cls-4{fill:#f6efe4;}.cls-5{mix-blend-mode:multiply;}.cls-6{fill:#d6c1aa;}.cls-7{fill:#fff;}.cls-8{fill:#008cbf;}.cls-9{fill:#4d4d4d;}.cls-10{fill:#fcb883;}.cls-11{fill:#e99738;}.cls-13{fill:#e38052;}.cls-14{fill:#c77518;}.cls-15{fill:#36564e;}.cls-16{fill:#24262a;}.cls-17{fill:#e58152;}.cls-18{fill:#ffba86;}.cls-19{font-size:3.77px;font-family:BerlinSansFBDemi-Bold, Berlin Sans FB Demi;font-weight:700;}.cls-20,.cls-23{fill:none;}.cls-20{stroke-width:2px;}.cls-21{fill:url(#Degradado_sin_nombre);}.cls-22{font-size:26.02px;font-family:ShowcardGothic-Reg, Showcard Gothic;}</style><linearGradient id="Degradado_sin_nombre" x1="202.63" y1="126.69" x2="286.12" y2="126.69" gradientUnits="userSpaceOnUse"><stop offset="0" stop-color="#fff"/><stop offset="1"/></linearGradient></defs><title>logo-black</title><g class="cls-1"><g id="Capa_1" data-name="Capa 1"><rect class="cls-2" x="88.21" y="17.78" width="35.5" height="53.7"/><rect class="cls-3" x="91.29" y="20.44" width="29.32" height="22.6"/><rect class="cls-3" x="91.29" y="45.16" width="29.32" height="22.6"/><polygon class="cls-4" points="108.46 20.44 91.29 34.76 91.29 25.48 97.34 20.44 108.46 20.44"/><polygon class="cls-4" points="120.13 45.16 93.04 67.76 91.29 67.76 91.29 59.98 109.06 45.16 120.13 45.16"/><polygon class="cls-4" points="120.62 35.58 120.62 43.04 111.67 43.04 120.62 35.58"/><polygon class="cls-4" points="120.62 55.24 120.62 59.65 110.89 67.76 105.6 67.76 120.62 55.24"/><polygon class="cls-4" points="91.29 45.16 96.11 45.16 91.29 49.18 91.29 45.16"/><g class="cls-5"><rect class="cls-6" x="91.29" y="45.16" width="29.32" height="1.06"/></g><polygon class="cls-4" points="120.62 20.44 120.62 24.8 98.75 43.04 93.48 43.04 120.58 20.44 120.62 20.44"/><g class="cls-5"><polygon class="cls-6" points="123.7 21.24 123.7 22.01 88.21 24.09 88.21 21.24 123.7 21.24"/></g><path class="cls-7" d="M327,103.43v4H278.42v-4h0c5.86-.9,7.73-9.31,7.73-9.31h33.16S321.18,102.53,327,103.43Z" transform="translate(-196.91 -86.18)"/><rect class="cls-6" x="81.52" y="17.25" width="48.62" height="4.25"/><path class="cls-8" d="M291.56,94.12s-1.1,8.24-7,9.12v4.18h-6.18v-4.18c5.86-.88,7.73-9.12,7.73-9.12Z" transform="translate(-196.91 -86.18)"/><path class="cls-8" d="M327,103.24v4.18h-6.17v-4.18c-5.86-.88-7.28-9.12-7.28-9.12h5.72S321.18,102.36,327,103.24Z" transform="translate(-196.91 -86.18)"/><path class="cls-8" d="M298.49,103.27v4.15h-5.75l-.14-4.18c3.65-2.34,3.94-9.12,3.94-9.12h3.79A22.15,22.15,0,0,1,298.49,103.27Z" transform="translate(-196.91 -86.18)"/><path class="cls-8" d="M312.35,103.24l-.15,4.18h-5.74v-4.15a22.15,22.15,0,0,1-1.84-9.15h3.79S308.7,100.9,312.35,103.24Z" transform="translate(-196.91 -86.18)"/><polygon class="cls-8" points="130.13 17.25 130.13 21.5 123.96 21.5 123.96 17.25 130.13 17.25 130.13 17.25"/><path class="cls-8" d="M298.5,103.43v4.25h-5.85l-.15-4.25Z" transform="translate(-196.91 -86.18)"/><path class="cls-8" d="M312.45,103.43l-.14,4.25h-5.85v-4.25Z" transform="translate(-196.91 -86.18)"/><path class="cls-9" d="M85.65,70.15h40.62a2.33,2.33,0,0,1,2.33,2.33v.86a.27.27,0,0,1-.27.27H83.58a.27.27,0,0,1-.27-.27v-.86a2.33,2.33,0,0,1,2.33-2.33Z"/><path class="cls-9" d="M83.14,72.28h45.63a2.39,2.39,0,0,1,2.39,2.39v.8a0,0,0,0,1,0,0H80.75a0,0,0,0,1,0,0v-.8A2.39,2.39,0,0,1,83.14,72.28Z"/><path class="cls-10" d="M325,115.23l0,.2,0,.19-.06.37c0,.25-.06.5-.07.76a6.66,6.66,0,0,0,0,.78,4.89,4.89,0,0,0,.07.83,3.69,3.69,0,0,0,.28,1,2.48,2.48,0,0,0,.35.58,1.84,1.84,0,0,0,.31.32,1.9,1.9,0,0,0,.44.31,2.54,2.54,0,0,0,.58.25,3.6,3.6,0,0,0,.64.12,3.68,3.68,0,0,0,1.1-.09l.41-.12.16-.06.15-.07a5.25,5.25,0,0,0,.53-.29c.17-.1.32-.2.46-.3l.4-.31a8.38,8.38,0,0,0,.68-.64,14,14,0,0,0,1.09-1.28c.33-.44.62-.87.9-1.31l.4-.67c.07-.11.13-.23.19-.34l.1-.17.1-.19a1.49,1.49,0,0,0-1-2.07,2,2,0,0,0-2.48.81l0,0-.06.12-.08.15-.16.29L330,115c-.24.37-.49.74-.75,1.09a8.92,8.92,0,0,1-.83,1c-.14.14-.28.28-.42.4l-.13.1c0-.09-.06-.19-.08-.28a5.84,5.84,0,0,1-.15-.6c0-.21-.07-.42-.1-.64l0-.32,0-.3v-.08a1.29,1.29,0,0,0-2.47-.08Z" transform="translate(-196.91 -86.18)"/><path class="cls-11" d="M331.84,112.68l-.43,6.13a5.26,5.26,0,0,1-2.17,2.12,2.91,2.91,0,0,1-1.4.3,3.4,3.4,0,0,1-1.23-.24,2.88,2.88,0,0,1-1.63-1.63s-.23,0-.47-.45.35-.63.35-.63l.07.41c.52,0,2.72-2,2.72-2s.09-.08.15,0,0,.28,0,.28l.06.14.15.37a20.15,20.15,0,0,0,2.26-3.49c.25-.9,1-2.72,1-2.72Z" transform="translate(-196.91 -86.18)"/><path class="cls-12" d="M329.24,120.93a2.91,2.91,0,0,1-1.4.3,3.4,3.4,0,0,1-1.23-.24,3.75,3.75,0,0,1,1.83-.41A.87.87,0,0,1,329.24,120.93Z" transform="translate(-196.91 -86.18)"/><path class="cls-12" d="M327.86,117.06a12.84,12.84,0,0,1-2.88,2.3s-.23,0-.47-.45.35-.63.35-.63l.07.41c.52,0,2.72-2,2.72-2s.09-.09.15,0,0,.28,0,.28Z" transform="translate(-196.91 -86.18)"/><path class="cls-12" d="M328.33,118.83h0a.08.08,0,0,0,.09-.07,3.23,3.23,0,0,0-.26-1.31.09.09,0,0,0-.12,0,.07.07,0,0,0,0,.1,3.11,3.11,0,0,1,.25,1.25A.07.07,0,0,0,328.33,118.83Z" transform="translate(-196.91 -86.18)"/><path class="cls-12" d="M328.72,117.87a.09.09,0,0,0,.07,0,.07.07,0,0,0,0-.1,1.1,1.1,0,0,0-.65-.35c-.05,0-.1,0-.11.06a.1.1,0,0,0,.07.09.85.85,0,0,1,.55.29Z" transform="translate(-196.91 -86.18)"/><path class="cls-10" d="M326.91,113.07s-.05,0,.1-.2,0-.94.27-1.1.48.34.65,1.43a4.55,4.55,0,0,1-.35,1.58c-.11.23-.13.55-.31.67a2.63,2.63,0,0,1-2.14.08,9.43,9.43,0,0,1-.55-1.59c-.16-.32-.93-2.49-.63-2.45s.76,1.05.76,1.05-.46-1.7-.13-1.77.73,1.52.73,1.52-.36-2.12.09-2c.22,0,.61,2,.61,2s-.15-1.25.47-1.22a1.06,1.06,0,0,1,.9.64s-.07.38-.58,0S326.91,113.07,326.91,113.07Z" transform="translate(-196.91 -86.18)"/><path class="cls-13" d="M324.69,113.07a.07.07,0,0,1,0-.09,2.88,2.88,0,0,1,1.86-.37.08.08,0,0,1,.06.09.09.09,0,0,1-.1,0h0a2.72,2.72,0,0,0-1.71.34.09.09,0,0,1-.12,0Z" transform="translate(-196.91 -86.18)"/><path class="cls-13" d="M325.78,114.62a.06.06,0,0,1,0-.08,1,1,0,0,0,.22-1.28s0-.07,0-.09a.09.09,0,0,1,.11,0h0a1.14,1.14,0,0,1-.23,1.44.09.09,0,0,1-.12,0Z" transform="translate(-196.91 -86.18)"/><polygon class="cls-10" points="140.94 70.77 140.72 72.28 138.41 72.28 138.28 70.69 140.94 70.77"/><polygon class="cls-10" points="134.78 70.53 134.5 72.28 132.2 72.28 132.29 70.48 134.78 70.53"/><path class="cls-11" d="M323.42,161.38h8.71a.82.82,0,0,0,.12-.4,9.87,9.87,0,0,0-.3-2.21c0-.08,0-.14,0-.21a1.29,1.29,0,0,1,0-.25c0-.5-.53-.42-.53-.42-.89.72-1.88-.36-2.47,0,0,0-.25.15-.94.67a11.69,11.69,0,0,1-2.87,1.21c-1.29.45-1.66.9-1.73,1.21A.46.46,0,0,0,323.42,161.38Z" transform="translate(-196.91 -86.18)"/><path class="cls-14" d="M323.42,161.65h8.71c.07-.27.1-.41.12-.53h-8.9C323.29,161.32,323.42,161.48,323.42,161.65Z" transform="translate(-196.91 -86.18)"/><path class="cls-14" d="M331.24,161.38h.26a1.42,1.42,0,0,1-.46-1.16,2,2,0,0,1,.91-1.45c0-.08,0-.14,0-.21a2.19,2.19,0,0,0-1.09,1.65A1.57,1.57,0,0,0,331.24,161.38Z" transform="translate(-196.91 -86.18)"/><path class="cls-14" d="M328.1,159.08a.16.16,0,0,0,.14-.09.12.12,0,0,0-.11-.14l-.54-.12a.17.17,0,0,0-.18.09.12.12,0,0,0,.11.14l.54.12Z" transform="translate(-196.91 -86.18)"/><path class="cls-14" d="M328.64,158.7a.14.14,0,0,0,.14-.09.12.12,0,0,0-.11-.14l-.54-.12a.17.17,0,0,0-.18.09c0,.07,0,.13.11.15l.54.11Z" transform="translate(-196.91 -86.18)"/><path class="cls-14" d="M327.55,159.35a.13.13,0,0,0,.14-.1c0-.06,0-.12-.1-.14L327,159a.14.14,0,0,0-.17.08.12.12,0,0,0,.1.15l.55.11Z" transform="translate(-196.91 -86.18)"/><path class="cls-14" d="M327,159.6a.16.16,0,0,0,.14-.09c0-.07,0-.13-.11-.15l-.54-.11a.15.15,0,0,0-.18.09.12.12,0,0,0,.11.14l.54.12Z" transform="translate(-196.91 -86.18)"/><path class="cls-14" d="M326.41,159.83c.07,0,.13,0,.14-.09a.11.11,0,0,0-.1-.14l-.55-.12a.16.16,0,0,0-.17.09c0,.07,0,.13.11.15l.54.11Z" transform="translate(-196.91 -86.18)"/><path class="cls-14" d="M325.77,160a.13.13,0,0,0,.14-.09.12.12,0,0,0-.1-.14l-.55-.12a.15.15,0,0,0-.17.09.12.12,0,0,0,.1.15l.55.11Z" transform="translate(-196.91 -86.18)"/><path class="cls-2" d="M341.4,130.86c0,.08,0,.33,0,.4h0a1.39,1.39,0,0,1-.12.28c-.39.8-3.4.91-6.37.64a17.4,17.4,0,0,1-5.58-1.23c-.94-.52,1.06-5.34,1.06-5.34L342,127A18.2,18.2,0,0,1,341.4,130.86Z" transform="translate(-196.91 -86.18)"/><path class="cls-12" d="M327.84,142.85l.92,13.91,3.32.09s1.21-10.28.79-12.51l1.77-12.17.05-.32-4.27-1.63-.26-.11-1.09-.41,0,.22c0,.27-.07.54-.11.81l0,.24c-.53,4.34-.93,8.38-1.06,11.63a2,2,0,0,0,0,.25Z" transform="translate(-196.91 -86.18)"/><path class="cls-15" d="M332.19,155.87c0,.06-.13-.07-.13-.07l-.32.27h-2.93V156a.12.12,0,0,1-.11-.11,1.74,1.74,0,0,1,.13-.32l2.67.27h.57S332.19,155.81,332.19,155.87Z" transform="translate(-196.91 -86.18)"/><path class="cls-15" d="M331.62,128.14a4.32,4.32,0,0,1-1.2,2.08,3,3,0,0,1-.63.45,3,3,0,0,1-.59.24,2.47,2.47,0,0,1-.29.06l0-.24.14,0a2.75,2.75,0,0,0,.56-.23,2.41,2.41,0,0,0,.52-.36,4.14,4.14,0,0,0,1.19-2,.14.14,0,0,1,.16-.09C331.59,128,331.64,128.08,331.62,128.14Z" transform="translate(-196.91 -86.18)"/><path class="cls-15" d="M333.9,131.69a.1.1,0,0,0,.11.09h0a.1.1,0,0,0,.12-.08c0-.35.05-.71.07-1.06,0-.07,0-.13,0-.19.09-1.16.2-2.3.29-3.11,0-.06,0-.13,0-.19s0-.33.05-.46l-.23,0c0,.13,0,.29-.05.47s0,.12,0,.18c-.09.8-.2,1.93-.29,3.09,0,.06,0,.13,0,.19C334,131,333.92,131.33,333.9,131.69Z" transform="translate(-196.91 -86.18)"/><path class="cls-15" d="M333.57,130.46s.2.08.4.13l.23,0,.22,0a1,1,0,0,0,.39,0,.42.42,0,0,0,.26-.29c.08-.36.26-1.84.38-2.89a1.23,1.23,0,0,1,0-.19c0-.16,0-.32,0-.45l-.23,0c0,.13,0,.29-.05.45l0,.19c-.12,1.05-.3,2.52-.38,2.87a.21.21,0,0,1-.14.16,1,1,0,0,1-.48,0l-.23,0-.32-.11a.13.13,0,0,0-.15.05A.08.08,0,0,0,333.57,130.46Z" transform="translate(-196.91 -86.18)"/><path class="cls-12" d="M334.76,130.59v25.86l0,.41h3.42a44.27,44.27,0,0,0,1.65-7.76c.19-3.35.13-7.69.13-7.69.37-2.3.92-7.1,1.24-10l0-.23h0c0-.08,0-.15,0-.22.13-1.15.21-1.89.21-1.89a5.3,5.3,0,0,0-2.49.16l-.27.06-.52.14-.26.07C336.29,130,334.76,130.59,334.76,130.59Z" transform="translate(-196.91 -86.18)"/><path class="cls-15" d="M338.56,156c0,.06-.14.08-.14.08l-.21.26-.12-.26-.16.26-.14-.26H335a.1.1,0,0,1-.11-.11c0-.06.13-.17.13-.17l2.83.27.16-.27.14.27.14-.27h.17S338.56,155.93,338.56,156Z" transform="translate(-196.91 -86.18)"/><path class="cls-11" d="M334.36,160.92V161a1.27,1.27,0,0,0,0,.2c0,.13,0,.21,0,.21h5.19a2.22,2.22,0,0,0,0-.41,2.06,2.06,0,0,0-.92-1.61c-1-.63-.61-.5-.81-.78,0,0-.2-.53-.21-.56-.17-.3-.33-.44-1.26-.44-1.23,0-1.34.5-1.47.76a4,4,0,0,0-.21.61l-.09.35c-.08.3-.15.61-.2.86A3.38,3.38,0,0,0,334.36,160.92Z" transform="translate(-196.91 -86.18)"/><path class="cls-14" d="M334.36,161v.05a1.34,1.34,0,0,0,0,.21,1.31,1.31,0,0,0,.54-.58,2.1,2.1,0,0,0-.2-1.65h0l-.09.34a1.65,1.65,0,0,1,.06,1.23A1,1,0,0,1,334.36,161Z" transform="translate(-196.91 -86.18)"/><path class="cls-14" d="M334.36,161.12c0,.19,0,.36,0,.53h5.19a4.68,4.68,0,0,0,0-.53Z" transform="translate(-196.91 -86.18)"/><path class="cls-14" d="M336.21,159h0a3.12,3.12,0,0,1,1.2,0,.15.15,0,0,0,.18-.09.12.12,0,0,0-.1-.15,3.53,3.53,0,0,0-1.36,0,.12.12,0,0,0-.1.15C336.08,159,336.14,159,336.21,159Z" transform="translate(-196.91 -86.18)"/><path class="cls-14" d="M336.13,158.56h0a3.13,3.13,0,0,1,1.2,0,.15.15,0,0,0,.18-.08.13.13,0,0,0-.1-.16,3.77,3.77,0,0,0-1.36,0,.12.12,0,0,0-.1.15A.13.13,0,0,0,336.13,158.56Z" transform="translate(-196.91 -86.18)"/><path class="cls-14" d="M336.43,159.42h0a3.12,3.12,0,0,1,1.2,0,.15.15,0,0,0,.18-.09c0-.06,0-.13-.1-.15a3.51,3.51,0,0,0-1.36,0,.13.13,0,0,0-.1.15A.15.15,0,0,0,336.43,159.42Z" transform="translate(-196.91 -86.18)"/><path class="cls-14" d="M336.69,159.86h0a2.71,2.71,0,0,1,1.2,0,.19.19,0,0,0,.19-.09c0-.07,0-.13-.11-.15a3.25,3.25,0,0,0-1.35,0,.12.12,0,0,0-.11.15A.16.16,0,0,0,336.69,159.86Z" transform="translate(-196.91 -86.18)"/><path class="cls-15" d="M341.36,131.26h0l0,.23a2.78,2.78,0,0,1-1.15-.09,3.53,3.53,0,0,1-1.66-1.18,5.5,5.5,0,0,1-.8-1.27c0-.06,0-.12.08-.14a.14.14,0,0,1,.18.07,4.77,4.77,0,0,0,.33.61,6.53,6.53,0,0,0,.44.61,3.29,3.29,0,0,0,1.53,1.08A2.31,2.31,0,0,0,341.36,131.26Z" transform="translate(-196.91 -86.18)"/><path class="cls-16" d="M333.51,105.07s-1.32,0-1.52-.48.63-.57.63-.57-1-.64-.83-1,1.08,0,1.08,0-1.06-.9-.58-1.17c.64-.37,1.81.41,1.81.41s-.63-.89.06-.89a2.18,2.18,0,0,1,1.16.64,5.23,5.23,0,0,1,2.37.71,1.75,1.75,0,0,1,.38.5,1.64,1.64,0,0,1,.13,1.21,1.3,1.3,0,0,0,0,.85c.23.44,1.27,1,1.19,1.48s-.73.26-.73.26.34.7-.12.71-1-.69-1-.69Z" transform="translate(-196.91 -86.18)"/><path class="cls-11" d="M343.63,118.54a1.23,1.23,0,0,1,0,.27c-.12.71-.24.93-.28,1.45,0,.23-.1.52-.13.75s-.07.46-.13.75-.13.67-.2,1.08c-.05.24-.1.5-.14.77v.47a21.86,21.86,0,0,1-.51,3.14h-.1l-.17.06a10,10,0,0,1-1.18.35,13.12,13.12,0,0,1-1.39.27l-.26,0h0l-.87.08h-.32a17.28,17.28,0,0,1-2.71-.13l-.22,0-.67-.11-.23,0a12.76,12.76,0,0,1-2.26-.68l-.25-.11-.66-.33,0,0a6.34,6.34,0,0,1-.72-.46c.11-.56.24-1.18.35-1.69h0c.09-.37.18-.74.26-1.12h0c.26-1.21.49-2.4.61-3.09,0-.23.07-.46.1-.69s.06-.43.09-.64.05-.46.07-.69l0-.35h0c0-.12,0-.23,0-.35s0-.11,0-.16,0-.36,0-.53a38.41,38.41,0,0,0-.45-5.06.73.73,0,0,1,0-.22,1.1,1.1,0,0,1,.11-.32,1.14,1.14,0,0,1,.18-.25,4,4,0,0,1,2-.79h0l.32-.09.14,0,.13,0,.16-.07a2.35,2.35,0,0,0,.76-.54h0l.08-.09h3.24a5,5,0,0,0,.74.38l.08,0,.06,0a3,3,0,0,0,.36.13l.36.11.13,0a6.72,6.72,0,0,0,.75.14,2.29,2.29,0,0,1,1.58.9,4.82,4.82,0,0,1,.87,2.69c.06.72.11,1.41.16,2.09,0,.31,0,.63.06.93a1.34,1.34,0,0,1,0,.2c0,.51,0,.83,0,1.33A2.62,2.62,0,0,1,343.63,118.54Z" transform="translate(-196.91 -86.18)"/><path class="cls-11" d="M341.33,127.06a.05.05,0,0,0,.06,0,30,30,0,0,0,.82-13.49.08.08,0,0,0-.08,0s-.06,0-.05.07a29.93,29.93,0,0,1-.82,13.44s0,.06.05.07Z" transform="translate(-196.91 -86.18)"/><path class="cls-11" d="M331.44,113s0,.35.08.79c0,.07,0,.14,0,.21a20.5,20.5,0,0,1,.11,2.36c0,.07-.1.09-.14,0h0a19.37,19.37,0,0,0-.11-2.4h0c-.05-.56-.1-1-.1-1a.08.08,0,0,1,.07-.07A.08.08,0,0,1,331.44,113Z" transform="translate(-196.91 -86.18)"/><path class="cls-11" d="M335.6,111.93a4.63,4.63,0,0,0,1.75-.37,8,8,0,0,0,1.85-1.07.06.06,0,0,0,0-.09.08.08,0,0,0-.1,0,7.49,7.49,0,0,1-1.81,1.06,3.48,3.48,0,0,1-3.52-.23.07.07,0,0,0-.1,0s0,.06,0,.09a3.16,3.16,0,0,0,1.89.61Z" transform="translate(-196.91 -86.18)"/><path class="cls-17" d="M334.16,105.8a.92.92,0,0,0-1.06-.47c-.69.23-.45,2.21.9,2Z" transform="translate(-196.91 -86.18)"/><path class="cls-18" d="M334.69,108.06l0,0h0a2.55,2.55,0,0,1,.3,1.19c0,.09,0,.19,0,.3l.29.11a4.23,4.23,0,0,0,2,.1,1.69,1.69,0,0,0,1-.51l-.5-3.11Z" transform="translate(-196.91 -86.18)"/><path class="cls-16" d="M334.72,108.1a2.55,2.55,0,0,1,.3,1.19,2.59,2.59,0,0,0,2.55-1.92l-2.86.72Z" transform="translate(-196.91 -86.18)"/><path class="cls-18" d="M336.43,108.53c-1.36.41-2.58,0-2.9-1-.07-.24-.15-.59-.22-1h0c0-.08,0-.16,0-.24l0-.17c-.12-.65-.21-1.25-.21-1.25-.09-1.65,1.73-2.49,3.39-2.07s1.42,2.47,1.59,3.44A1.94,1.94,0,0,1,336.43,108.53Z" transform="translate(-196.91 -86.18)"/><path class="cls-7" d="M334.38,106.92l1.51-.47s0,.76-.61.86A.85.85,0,0,1,334.38,106.92Z" transform="translate(-196.91 -86.18)"/><path class="cls-16" d="M335.5,105.4c0,.11.1.2.18.19s.13-.11.11-.22-.09-.2-.17-.19S335.49,105.29,335.5,105.4Z" transform="translate(-196.91 -86.18)"/><path class="cls-16" d="M334,105.56c0,.11.09.19.17.19s.13-.11.12-.22-.1-.2-.18-.19S334,105.44,334,105.56Z" transform="translate(-196.91 -86.18)"/><path class="cls-17" d="M335,107.58l-.06,0a.07.07,0,0,1,0-.08.09.09,0,0,1,.11,0,.55.55,0,0,0,.48-.06.11.11,0,0,1,.11,0,.06.06,0,0,1,0,.09A.76.76,0,0,1,335,107.58Z" transform="translate(-196.91 -86.18)"/><path class="cls-16" d="M333.09,105.4a7,7,0,0,0,.06-1.12c0-.2.28-.37.5-.43a.6.6,0,0,1,.26,0c.28,0,.37.29.71.14s.68-.63,1.27-.52.48.41.75.7.12.93.47,1.31.77-.91.77-.91-.4-1.93-2-2.07S332.52,103.45,333.09,105.4Z" transform="translate(-196.91 -86.18)"/><path class="cls-16" d="M334.73,106.58h0c-.36-.14-.44-.23-.45-.25a0,0,0,0,1,0,0l.35-.64h0a.87.87,0,0,0,0-.55.05.05,0,0,1,.05-.06s.07,0,.07,0a.86.86,0,0,1,0,.61l-.33.6a1.52,1.52,0,0,0,.37.19s.05,0,0,.07A.05.05,0,0,1,334.73,106.58Z" transform="translate(-196.91 -86.18)"/><path class="cls-18" d="M337.47,105a.89.89,0,0,1,1-.42c.71.18.69,2.17-.67,2.08Z" transform="translate(-196.91 -86.18)"/><path class="cls-16" d="M338,106h0a.05.05,0,0,1-.05-.06,1,1,0,0,1,.7-.77.07.07,0,0,1,.08,0s0,0,0,.06a.88.88,0,0,0-.62.69S338,106,338,106Z" transform="translate(-196.91 -86.18)"/><path class="cls-16" d="M338.49,105.74l-.05,0-.3-.18a.05.05,0,0,1,0-.08.07.07,0,0,1,.09,0,3.07,3.07,0,0,1,.31.19,0,0,0,0,1,0,.08Z" transform="translate(-196.91 -86.18)"/><path class="cls-16" d="M335.33,104.25a1,1,0,0,1,.79.14c.25.23-.06.34-.19.27a1.2,1.2,0,0,0-.59-.13C335.1,104.53,335.14,104.28,335.33,104.25Z" transform="translate(-196.91 -86.18)"/><path class="cls-16" d="M334,104.41s-.52,0-.7.33.18.31.28.21a1,1,0,0,1,.51-.27C334.3,104.62,334.18,104.39,334,104.41Z" transform="translate(-196.91 -86.18)"/><path class="cls-8" d="M331.08,118.59c0-.15.07-.3.11-.45.87-3.63.6-5.3,1.33-7.88a2.93,2.93,0,0,1,1-.28v0a10.26,10.26,0,0,0-.6,3s4.22.27,6.12.35A12,12,0,0,1,340.5,110a1.41,1.41,0,0,1,.89.19h0s-2.42,3.56-1.29,6.66c0,0,2.11,3.36,2.25,18.19-5.11.61-9.48-1.65-14.38-.47A102.36,102.36,0,0,1,331.08,118.59Z" transform="translate(-196.91 -86.18)"/><path class="cls-8" d="M337.92,121.36a6.05,6.05,0,0,1-3.79-1.34,6.62,6.62,0,0,1-1.54-1.71.06.06,0,0,1,0-.09.09.09,0,0,1,.11,0,6.45,6.45,0,0,0,1.51,1.67,5.86,5.86,0,0,0,4.54,1.25.08.08,0,0,1,.1,0,.08.08,0,0,1-.07.08A7,7,0,0,1,337.92,121.36Z" transform="translate(-196.91 -86.18)"/><path class="cls-7" d="M332.93,114.19a14.48,14.48,0,0,0-.21,2.76,27.08,27.08,0,0,0,5.77.33,26.38,26.38,0,0,1,0-2.82S334.31,114.38,332.93,114.19Z" transform="translate(-196.91 -86.18)"/><path class="cls-8" d="M341.81,134.29a.09.09,0,0,1-.08-.06,38.18,38.18,0,0,1-.06-4.37A52.29,52.29,0,0,0,340.3,118s0-.07.06-.08a.07.07,0,0,1,.09,0,51.72,51.72,0,0,1,1.38,11.9,37.92,37.92,0,0,0,.06,4.35s0,.07-.07.07Z" transform="translate(-196.91 -86.18)"/><path class="cls-8" d="M339.69,113.49a.27.27,0,1,1-.26-.21A.25.25,0,0,1,339.69,113.49Z" transform="translate(-196.91 -86.18)"/><path class="cls-8" d="M332.66,113.19a.24.24,0,0,1-.26.21.23.23,0,0,1-.26-.21.24.24,0,0,1,.26-.22A.25.25,0,0,1,332.66,113.19Z" transform="translate(-196.91 -86.18)"/><path class="cls-8" d="M340.75,134.36a52.84,52.84,0,0,1-7.26-.8,14.42,14.42,0,0,0-5.27.07.08.08,0,0,1-.1,0,.07.07,0,0,1,.05-.08,14.61,14.61,0,0,1,5.35-.07c6.06,1,8.05.87,8.65.63a.11.11,0,0,1,.11,0s0,.07,0,.09A4.28,4.28,0,0,1,340.75,134.36Z" transform="translate(-196.91 -86.18)"/><path class="cls-7" d="M331.62,122.25a14.61,14.61,0,0,0-.54,4.81s5.15,1,8.4.26a20.81,20.81,0,0,1-.37-4.75A52.27,52.27,0,0,1,331.62,122.25Z" transform="translate(-196.91 -86.18)"/><path class="cls-8" d="M343.26,120.06s.36.61-.16,1l-1.76.49a.8.8,0,0,1-.22-1Z" transform="translate(-196.91 -86.18)"/><path class="cls-11" d="M349.8,119.6a2.32,2.32,0,0,1-.12.44,2.38,2.38,0,0,1-.22.48l-.07.13-.32.47c-.22.28-.44.53-.67.77s-.46.46-.69.68l-.36.32-.37.31-.37.3-.19.14-.21.15a1.63,1.63,0,0,1-1.52.19,1.11,1.11,0,0,1-.69-1.56l.09-.16,0,0,0,0,.06-.08.12-.17.24-.33.23-.34.23-.33c.15-.22.3-.44.43-.66a5.51,5.51,0,0,0,.34-.62l0-.06-.11-.12-.26-.28-.58-.58-.62-.59-.63-.6-1.29-1.19L341.05,115l-.65-.6-.18-.16q.25-.65.54-1.26c.21-.49.44-1,.66-1.45l.33-.73.06-.13a2.47,2.47,0,0,1,1.32.6h0l.33.31c.11.1.22.2.32.31l.33.31.32.31,1.26,1.27c.41.43.83.86,1.24,1.3l.6.66.61.68q.3.34.6.72l.3.38c.1.14.2.28.31.45l.05.06h0l0,.06.05.08.05.09.05.1.06.13,0,0,0,0v0l0,0a.9.9,0,0,1,.06.22A2.11,2.11,0,0,1,349.8,119.6Z" transform="translate(-196.91 -86.18)"/><path class="cls-10" d="M348.65,121.58h0l-.29.31c-.23.24-.46.46-.7.68l-.35.32-.37.31-.37.3-.2.14-.2.15a1.63,1.63,0,0,1-1.52.19,1.1,1.1,0,0,1-.69-1.56l.09-.16,0,0,0,0,.05-.08.12-.17.24-.33.24-.34.23-.33q.22-.33.42-.66a1.63,1.63,0,0,0,.11-.17c.06-.1.11-.2.16-.3h0A4.48,4.48,0,0,1,348.65,121.58Z" transform="translate(-196.91 -86.18)"/><path class="cls-12" d="M342.49,116.48h.05a.06.06,0,0,0,0-.1s-.79-.76-1.57-1.48a.09.09,0,0,0-.12,0,.07.07,0,0,0,0,.1c.77.71,1.56,1.46,1.56,1.47Z" transform="translate(-196.91 -86.18)"/><path class="cls-12" d="M340.86,115.39h.56c.05.08.08,0,.08,0s0-.07-.08.26h-.56c0-.33-.08-.3-.08-.26S340.81,115.47,340.86,115.39Z" transform="translate(-196.91 -86.18)"/><path class="cls-10" d="M340.56,123.47c0,.2.58.13,1,.14a4.61,4.61,0,0,1,.93,0,2.4,2.4,0,0,0-.63.13l-.22.09h0a2.81,2.81,0,0,0-.55.27c-.13.12.28.28.69.2a5.14,5.14,0,0,0,.58-.18l.17,0,.13,0-.13.06-.22.11-.13.07c-.19.11-.51.51-.35.61a.21.21,0,0,0,.14,0,3.57,3.57,0,0,0,.54-.17,1.54,1.54,0,0,1,.5-.13c.35,0,1,0,1.85-.08a1.85,1.85,0,0,0,1.08-.42.66.66,0,0,0,.24-.36h0a1.11,1.11,0,0,0,0-.6,1.54,1.54,0,0,0-1.32-1.1l-.08,0a4.42,4.42,0,0,0-.93-.3,2.68,2.68,0,0,0-.94.13h0l-.09.48h0a1.7,1.7,0,0,0-.59-.08l-.32,0-.2,0c-.26.06-.48.15-.63.19s0,.33.43.32a3.86,3.86,0,0,1,.8.06h0l.07,0h-.05a2.83,2.83,0,0,0-.76.07C341.24,123.16,340.58,123.28,340.56,123.47Z" transform="translate(-196.91 -86.18)"/><path class="cls-2" d="M315.05,117.9a.27.27,0,0,1-.12,0L303,111.59l-11.9,6.28a.25.25,0,0,1-.29,0c-.07-.07-.05-.16.05-.21l12-6.35a.26.26,0,0,1,.24,0l12,6.35a.12.12,0,0,1,0,.21A.23.23,0,0,1,315.05,117.9Z" transform="translate(-196.91 -86.18)"/><path class="cls-8" d="M304.11,111.43c0,.44-.49.8-1.09.8s-1.09-.36-1.09-.8.49-.8,1.09-.8S304.11,111,304.11,111.43Z" transform="translate(-196.91 -86.18)"/><rect class="cls-2" x="93.61" y="31.34" width="25.21" height="10.63" rx="2.58"/><path class="cls-8" d="M96,32.14h20.15a1.37,1.37,0,0,1,1.37,1.37v2.35a0,0,0,0,1,0,0H94.64a0,0,0,0,1,0,0V33.51A1.37,1.37,0,0,1,96,32.14Z"/><path class="cls-7" d="M94.64,35.86h22.89a0,0,0,0,1,0,0V39.8a1.37,1.37,0,0,1-1.37,1.37H96a1.37,1.37,0,0,1-1.37-1.37V35.86A0,0,0,0,1,94.64,35.86Z"/><text class="cls-19" transform="translate(97.32 39.8) scale(1.28 1)">MI VECI</text><rect class="cls-20" x="1" y="1" width="160" height="80" rx="12"/><path class="cls-21" d="M229.27,100c-.12,1.77-.3,5-.53,9.73q-.19,4.35-.28,9.78h-4.73l-.13-6L219,120l-5-6.4-.13,5.93h-4.7c-.06-1.94-.18-5.21-.35-9.83q-.2-4-.67-9.68h7.49c.26.61.71,1.61,1.34,3,.49,1,1.16,2.15,2,3.49.37-.58,1.06-1.77,2.06-3.57q.54-1,1.38-2.91Z" transform="translate(-196.91 -86.18)"/><path class="cls-21" d="M239.41,100l-.51,10.38c-.1,2.23-.21,5.28-.34,9.13h-7.33L230.34,100Z" transform="translate(-196.91 -86.18)"/><path class="cls-21" d="M225,131.2c-.73,2.09-1.88,5.49-3.48,10.21q-1.09,3.33-2.83,9.31h-4.55q-.87-2.9-2.93-9.46-1.15-3.64-3.44-10.06H217c.09.81.29,2.12.62,3.93.21,1,.55,2.3,1,4,.25-.82.61-2.16,1.08-4,.21-1,.46-2.3.74-3.91Z" transform="translate(-196.91 -86.18)"/><path class="cls-21" d="M239.38,131.2l-.56,8.05-2.09-.27c-.73-.07-1.53-.11-2.4-.13l-.2,2.43c1,0,2.52,0,4.69-.06-.09.31-.25.9-.46,1.75-.12.52-.23,1.12-.32,1.79-.25-.06-.89-.13-1.9-.23-.47,0-1.16,0-2.09,0l-.13,2.83c.66,0,1.86-.06,3.61-.16a13.14,13.14,0,0,0,1.63-.31c-.07.27-.23.9-.48,1.9q-.18.76-.45,1.95H226.54l-.38-10c-.07-2.28-.24-5.46-.51-9.56Z" transform="translate(-196.91 -86.18)"/><path class="cls-21" d="M255.27,139.2a6.29,6.29,0,0,0-1.84-.22,5.2,5.2,0,0,0-3.4,1.07,4.18,4.18,0,0,0-1.48,3.44,3.82,3.82,0,0,0,1.17,2.88,4.24,4.24,0,0,0,3.07,1.13,5.05,5.05,0,0,0,2.45-.63c-.08.35-.23,1-.44,1.92-.12.62-.24,1.26-.35,1.93a10.76,10.76,0,0,1-3.75.55,10.06,10.06,0,0,1-7.08-2.71,9.94,9.94,0,0,1-3.19-7.67,9.46,9.46,0,0,1,2.74-7.07q2.93-2.87,8.09-2.87a16.09,16.09,0,0,1,3.59.28Z" transform="translate(-196.91 -86.18)"/><path class="cls-21" d="M265.47,131.2,265,141.59c-.09,2.23-.21,5.28-.34,9.13h-7.33l-.88-19.52Z" transform="translate(-196.91 -86.18)"/><text class="cls-22" transform="translate(10.72 33.31) scale(1.03 1)">MI<tspan x="0" y="31.23">VECI</tspan></text><line class="cls-23" x1="87.69" y1="17.06" x2="81.52" y2="17.25"/></g></g></svg>